# xmcd
#
# Track frame offsets:
#	150
#	17615
#	31095
#	47724
#	64939
#	84566
#	99878
#	115663
#	137351
#	153203
#	169578
#	189935
#	203927
#
# Disc length: 2861 seconds
#
# Revision: 0
# Processed by: cddbd v1.4b42PL1 Copyright (c) Steve Scherf et al.
# Submitted via: EasyCDDAExtractor 4.5.0.2
#
DISCID=940b2b0d
DTITLE=Hensley Sturgis - cabin fever
DYEAR=2001
DGENRE=Country
TTITLE0=heart of the past
TTITLE1=which williams
TTITLE2=spark in the dark
TTITLE3=ledge
TTITLE4=i´d say i´m sorry
TTITLE5=bottom land
TTITLE6=Sherlock
TTITLE7=same old story
TTITLE8=driving back from dayton
TTITLE9=stupid truth
TTITLE10=the hat song
TTITLE11=abandon
TTITLE12=hazelwoody haze
EXTD=
EXTT0=
EXTT1=
EXTT2=
EXTT3=
EXTT4=
EXTT5=
EXTT6=
EXTT7=
EXTT8=
EXTT9=
EXTT10=
EXTT11=
EXTT12=
PLAYORDER=
